<?xml version="1.0" ?>
<svg viewBox="0 0 830 200" xmlns="http://www.w3.org/2000/svg">
    <style>
    text { font-family: Menlo, Consolas, 'DejaVu Sans Mono', monospace; font-size: 7px; }
    text.desc { font-family: "Helvetica Neue", Helvetica, Arial, sans-serif; font-size: 10px; }
    text.title { font-size: 15px; }
    g text, text.title { text-anchor: middle; }
    line, rect { stroke: #000; }
    rect { width: 40px; height: 20px; fill: #CCC !important; }
    rect.bg { stroke-width: 0; fill: #FFF !important; width: 100%; height: 100%; }
    rect.white { fill: #FFF !important; }
    rect.red { fill: #E33 !important; }
    rect.orange { fill: #F93 !important; }
    rect.yellow { fill: #FF3 !important; }
    rect.green { fill: #3E3 !important; }
    rect.blue { fill: #6DF !important; }
    rect.double { width: 80px; }
    rect.quad { width: 160px; }
    rect, line.dash { stroke-width: 1; }
    line.dash { stroke-dasharray: 2, 2; }
    </style>

    <rect x="0" y="0" class="bg" />

    <text x="410" y="30" class="title desc">ipc_kmsg</text>

    <g transform="translate(10 50)">
        <g transform="translate(0 0)">
            <rect x="0"  y="0" />
            <rect x="40" y="0" class="white" />
            <rect x="80" y="0" class="double" />
            <rect x="160" y="0" class="double" />
            <rect x="240" y="0" class="double blue" />
            <rect x="320" y="0" class="double" />
            <rect x="400" y="0" class="double" />
            <rect x="480" y="0" />
            <rect x="520" y="0" />
            <rect x="560" y="0" class="double" />
            <rect x="640" y="0" class="quad" />
            <line x1="720" y1="0"  x2="720" y2="20" class="dash" />
            <line x1="800" y1="0"  x2="810" y2="0"  class="dash" />
            <line x1="800" y1="20" x2="810" y2="20" class="dash" />
        </g>
        <g transform="translate(0 30)">
            <text x="20" y="0">ikm_size</text>
            <text x="60" y="0">(padding)</text>
            <text x="120" y="0">ikm_next</text>
            <text x="200" y="0">ikm_prev</text>
            <text x="280" y="0">ikm_header</text>
            <text x="360" y="0">ikm_prealloc</text>
            <text x="440" y="0">ikm_voucher</text>
            <text x="500" y="0">ikm_qos</text>
            <text x="540" y="10">ikm_qos_override</text>
            <text x="600" y="0">ikm_importance</text>
            <text x="720" y="0">ikm_inheritance</text>
        </g>
    </g>

    <text x="410" y="125" class="title desc">EvGlobals</text>

    <g transform="translate(50 145)">
        <g transform="translate(0 0)">
            <rect x="0"  y="0" class="yellow" />
            <rect x="40" y="0" />
            <rect x="80" y="0" />
            <rect x="120" y="0" />
            <rect x="160" y="0" />
            <rect x="200" y="0" class="green" />
            <rect x="240" y="0" />
            <rect x="280" y="0" class="double" />
            <rect x="360" y="0" class="double" />
            <rect x="440" y="0" />
            <rect x="480" y="0" />
            <rect x="520" y="0" />
            <rect x="560" y="0" class="double orange" />
            <rect x="640" y="0" class="double orange" />
            <line x1="720" y1="0"  x2="730" y2="0"  class="dash" />
            <line x1="720" y1="20" x2="730" y2="20" class="dash" />
        </g>
        <g transform="translate(0 30)">
            <text x="20" y="0">cursorSema</text>
            <text x="60" y="0">eNum</text>
            <text x="100" y="0">buttons</text>
            <text x="140" y="0">eventFlags</text>
            <text x="180" y="10">VertRetraceClock</text>
            <text x="220" y="0">cursorLoc</text>
            <text x="260" y="0">frame</text>
            <text x="320" y="0">workBounds</text>
            <text x="400" y="0">mouseRect</text>
            <text x="460" y="0">version</text>
            <text x="500" y="10">structSize</text>
            <text x="540" y="0">lastFrame</text>
            <text x="600" y="0">screenCursorFixed</text>
            <text x="680" y="0">desktopCursorFixed</text>
        </g>
    </g>
</svg>
