<?xml version="1.0" ?>
<svg viewBox="0 0 980 200" xmlns="http://www.w3.org/2000/svg">
    <style>
    text { font-family: Menlo, Consolas, 'DejaVu Sans Mono', monospace; font-size: 7px; }
    text.desc { font-family: "Helvetica Neue", Helvetica, Arial, sans-serif; font-size: 10px; }
    text.title { font-size: 15px; }
    g text, text.title { text-anchor: middle; }
    line, rect { stroke: #000; }
    rect { width: 40px; height: 20px; fill: #CCC !important; }
    rect.bg { stroke-width: 0; fill: #FFF !important; width: 100%; height: 100%; }
    rect.white { fill: #FFF !important; }
    rect.red { fill: #E33 !important; }
    rect.orange { fill: #F93 !important; }
    rect.yellow { fill: #FF3 !important; }
    rect.green { fill: #3E3 !important; }
    rect.blue { fill: #6DF !important; }
    rect.double { width: 80px; }
    rect.quad { width: 160px; }
    rect, line.dash { stroke-width: 1; }
    line.dash { stroke-dasharray: 2, 2; }
    </style>

    <rect x="0" y="0" class="bg" />

    <g transform="translate(10 10)">
        <g transform="translate(0 0)">
            <rect x="0"  y="0" />
            <text x="20" y="13">i+1</text>
            <rect x="40" y="0" />
            <text x="60" y="13">0</text>
            <rect x="80" y="0" />
            <text x="100" y="13">0</text>
            <rect x="120" y="0" class="double white" />
            <line x1="160" y1="0" x2="160" y2="20" class="dash" />
            <rect x="200" y="0" class="double" />
            <text x="240" y="13">0</text>
            <rect x="280" y="0" />
            <text x="300" y="13">0</text>
            <rect x="320" y="0" class="white" />
            <rect x="360" y="0" class="double white" />
            <rect x="440" y="0" class="white" />
            <rect x="480" y="0" class="white" style="width: 480px" />
        </g>
        <g transform="translate(0 30)">
            <text x="20" y="0">next</text>
            <text x="60" y="0">sema</text>
            <text x="100" y="0">type</text>
            <text x="160" y="0">location</text>
            <text x="240" y="0">time</text>
            <text x="300" y="0">flags</text>
            <text x="340" y="0">window</text>
            <text x="400" y="0">service_id</text>
            <text x="460" y="0">ext_pid</text>
            <text x="720" y="0">data (48 bytes)</text>
        </g>
    </g>
</svg>
